<svg xmlns="http://www.w3.org/2000/svg" xmlns:svg="http://www.w3.org/2000/svg" xmlns:xlink="http://www.w3.org/1999/xlink" version="1.0" height="483.0769230769231pt" width="646.1538461538461pt" viewBox="615.0000000000001 257 654.1538461538461 489.0769230769231" ><defs><style type="text/css">
            @font-face {
                font-family: 'noto_regular';
                src: url('https://app.creately.com/diagram/assets/fonts/noto/noto-regular.woff') format('woff'),
                     url('https://app.creately.com/diagram/assets/fonts/noto/noto-regular.woff2') format('woff2');
                font-weight: normal;
                font-style: normal;
            }
        p {
            margin: 0;
        }
        </style></defs><defs><style>
            span{ display: inline-block; }
        </style></defs><g id="I3XKfhS7VsM"><g transform="translate(620.0000000000001 360.00000000000006)"><ellipse cx="70.00000000000001" cy="35.00000000000001" rx="35.00000000000001" ry="35.00000000000001" fill="rgb(255,255,255)" stroke="#FF3D3D" stroke-width="2" stroke-linecap="round" stroke-linejoin="round"/><path d="M 70.00000000000001,70.00000000000001 L 70.00000000000001,168.00000000000003 L 140.00000000000003,280.00000000000006 M 70.00000000000001,168.00000000000003 L 0,280.00000000000006 M 7.000000000000002,105.00000000000003 L 133.00000000000003,105.00000000000003" fill="none" stroke="#FF3D3D" stroke-width="2" stroke-linecap="round" stroke-linejoin="round"/><rect x="0" y="0" width="140.00000000000003" height="280.00000000000006" fill="rgba(255,255,255,0.01)" stroke="rgba(255,255,255,0.01)" stroke-width="2" stroke-linecap="round" stroke-linejoin="round"/></g><g transform="translate(675.4250000000001, 650.0000000000001) rotate(0, 14.575, 0)" width="29.15" height="18.4"><text text-decoration="none" x="1.5749999999999993" fill="#545454" font-size="10pt" font-family="noto_regular"  y="15">User</text><text text-decoration="none" x="27.575" fill="#4b4b4b" font-size="10pt" font-family="noto_regular"  y="15"></text></g></g><g id="xk8WChbTEaf"><g transform="translate(1040 260)"><ellipse cx="113.07692307692307" cy="56.53846153846153" rx="113.07692307692307" ry="56.53846153846153" fill="rgb(36,175,175)" stroke="#24afaf" stroke-width="2" stroke-linecap="round" stroke-linejoin="round"/></g><g transform="translate(1123.5369230769231, 307.33846153846156) rotate(0, 29.54, 9.2)" width="59.08" height="18.4"><text text-decoration="none" x="2.539999999999999" fill="#ffffff" font-size="10pt" font-family="noto_regular"  y="15">Idle&#160;</text><text text-decoration="none" x="26.54" fill="#ffffff" font-size="10pt" font-family="noto_regular"  y="15">State</text><text text-decoration="none" x="56.54" fill="#4b4b4b" font-size="10pt" font-family="noto_regular"  y="15"></text></g></g><g id="ajwJ4IcX0wY"><g transform="translate(1040 630)"><ellipse cx="113.07692307692307" cy="56.53846153846153" rx="113.07692307692307" ry="56.53846153846153" fill="rgb(36,175,175)" stroke="#24afaf" stroke-width="2" stroke-linecap="round" stroke-linejoin="round"/></g><g transform="translate(1114.2169230769232, 677.3384615384615) rotate(0, 38.86, 9.2)" width="77.72" height="18.4"><text text-decoration="none" x="3.8599999999999994" fill="#ffffff" font-size="10pt" font-family="noto_regular"  y="15">Take&#160;</text><text text-decoration="none" x="35.86" fill="#ffffff" font-size="10pt" font-family="noto_regular"  y="15">Output</text><text text-decoration="none" x="73.86" fill="#4b4b4b" font-size="10pt" font-family="noto_regular"  y="15"></text></g></g><g id="r3I78ZqcmRE"><g transform="translate(1040 438.8461538461538)"><ellipse cx="113.07692307692307" cy="56.53846153846153" rx="113.07692307692307" ry="56.53846153846153" fill="rgb(36,175,175)" stroke="#24afaf" stroke-width="2" stroke-linecap="round" stroke-linejoin="round"/></g><g transform="translate(1120.6219230769232, 486.18461538461537) rotate(0, 32.455, 9.2)" width="64.91" height="18.4"><text text-decoration="none" x="3.9549999999999983" fill="#ffffff" font-size="10pt" font-family="noto_regular"  y="15">Give&#160;</text><text text-decoration="none" x="31.955" fill="#ffffff" font-size="10pt" font-family="noto_regular"  y="15">Input</text><text text-decoration="none" x="60.955" fill="#4b4b4b" font-size="10pt" font-family="noto_regular"  y="15"></text></g></g><g id="7kYrUGs5Znw"><mask id="34c99" x="761" y="303" width="293" height="155" maskUnits="userSpaceOnUse"><rect x="761" y="303" width="293" height="155" fill="white" /><rect x="864.395" y="368.3" width="86.21" height="24.4" fill="black" /></mask><g mask="url(#34c99)"><path d="M 775,444 L 1040,317" fill="none" stroke="#7C7B7A" stroke-width="2" stroke-linecap="round" stroke-linejoin="round"/></g><g transform="translate(867.395, 371.3)" width="80.21" height="18.4"><text text-decoration="none" x="2.104999999999997" fill="#4b4b4b" font-size="10pt" font-family="noto_regular"  y="15">Check&#160;</text><text text-decoration="none" x="41.105" fill="#4b4b4b" font-size="10pt" font-family="noto_regular"  y="15">Status</text><text text-decoration="none" x="78.10499999999999" fill="#4b4b4b" font-size="10pt" font-family="noto_regular"  y="15"></text></g></g><g id="yqSuvkT8FG0"><mask id="ecdec" x="761" y="481" width="293" height="33" maskUnits="userSpaceOnUse"><rect x="761" y="481" width="293" height="33" fill="white" /><rect x="865.49" y="485.3" width="84.02" height="24.4" fill="black" /></mask><g mask="url(#ecdec)"><path d="M 775,500 L 1040,495" fill="none" stroke="#7E7E7E" stroke-width="2" stroke-linecap="round" stroke-linejoin="round"/></g><g transform="translate(868.49, 488.3)" width="78.02" height="18.4"><text text-decoration="none" x="3.509999999999998" fill="#4b4b4b" font-size="10pt" font-family="noto_regular"  y="15">Enter&#160;</text><text text-decoration="none" x="35.51" fill="#4b4b4b" font-size="10pt" font-family="noto_regular"  y="15">Values</text><text text-decoration="none" x="74.50999999999999" fill="#4b4b4b" font-size="10pt" font-family="noto_regular"  y="15"></text></g></g><g id="extMWZFdZuN"><mask id="0f30e" x="761" y="542" width="293" height="159" maskUnits="userSpaceOnUse"><rect x="761" y="542" width="293" height="159" fill="white" /><rect x="865.64" y="609.3" width="83.72" height="24.4" fill="black" /></mask><g mask="url(#0f30e)"><path d="M 775,556 L 1040,687" fill="none" stroke="#7C7B7A" stroke-width="2" stroke-linecap="round" stroke-linejoin="round"/></g><g transform="translate(868.64, 612.3)" width="77.72" height="18.4"><text text-decoration="none" x="3.8599999999999994" fill="#4b4b4b" font-size="10pt" font-family="noto_regular"  y="15">Take&#160;</text><text text-decoration="none" x="35.86" fill="#4b4b4b" font-size="10pt" font-family="noto_regular"  y="15">Output</text><text text-decoration="none" x="73.86" fill="#4b4b4b" font-size="10pt" font-family="noto_regular"  y="15"></text></g></g></svg>